<?xml version="1.0" encoding="UTF-8"?>
<svg version="1.1" xmlns="http://www.w3.org/2000/svg" width="256" height="256">
<path d="M0 0 C3.30130618 1.27743206 6.41417815 2.88736671 9.5625 4.5 C34.50874173 16.78998118 60.77302438 24.34193988 87.86035156 30.30273438 C93.24844162 31.49934287 98.62384188 32.75104861 104 34 C105.73879908 47.76408272 106.36589965 61.31924531 106.3125 75.1875 C106.31067719 76.17412628 106.30885437 77.16075256 106.30697632 78.17727661 C106.26099332 92.98155392 105.81794024 107.42368864 103 122 C102.74259033 123.38203613 102.74259033 123.38203613 102.47998047 124.79199219 C96.33284651 156.92848338 82.42981386 186.09613579 60 210 C59.4323291 210.60618164 58.8646582 211.21236328 58.27978516 211.83691406 C50.14298572 220.43558774 41.50648079 227.96214194 32 235 C31.44908691 235.41701172 30.89817383 235.83402344 30.33056641 236.26367188 C23.16357501 241.68596929 15.70716193 246.56571789 8 251.1875 C6.79790894 251.9290332 6.79790894 251.9290332 5.5715332 252.68554688 C2.194098 254.66036439 -0.119607 255.97986395 -4.07421875 256.0703125 C-7.92990763 254.65982017 -11.30989376 252.81678221 -14.8125 250.6875 C-15.54807129 250.24672119 -16.28364258 249.80594238 -17.04150391 249.35180664 C-25.31980079 244.31395208 -33.22079526 238.77220309 -41 233 C-41.9384375 232.3090625 -42.876875 231.618125 -43.84375 230.90625 C-83.01537254 200.43943247 -104.6332152 157.50923509 -111 109 C-111.08886978 108.34013596 -111.17773956 107.68027191 -111.26930237 107.00041199 C-112.02408389 100.90523334 -112.16111895 94.88323635 -112.16796875 88.74609375 C-112.17129715 87.68697281 -112.17462555 86.62785187 -112.17805481 85.53663635 C-112.18309413 83.30364411 -112.18546407 81.07064441 -112.18530273 78.83764648 C-112.18747789 75.47171158 -112.20563489 72.10611097 -112.22460938 68.74023438 C-112.25424803 56.99388023 -111.91919004 45.60539111 -110 34 C-103.45265373 32.47219557 -96.90227819 30.97097072 -90.328125 29.5625 C-61.70679009 23.31887311 -33.89158466 14.57756749 -7.88574219 0.88696289 C-4.99808819 -0.47125138 -3.18754862 -0.38682037 0 0 Z " fill="#91191D" transform="translate(131,0)"/>
<path d="M0 0 C3.30130618 1.27743206 6.41417815 2.88736671 9.5625 4.5 C34.50874173 16.78998118 60.77302438 24.34193988 87.86035156 30.30273438 C93.24844162 31.49934287 98.62384188 32.75104861 104 34 C105.73879908 47.76408272 106.36589965 61.31924531 106.3125 75.1875 C106.31067719 76.17412628 106.30885437 77.16075256 106.30697632 78.17727661 C106.26099332 92.98155392 105.81794024 107.42368864 103 122 C102.74259033 123.38203613 102.74259033 123.38203613 102.47998047 124.79199219 C96.33284651 156.92848338 82.42981386 186.09613579 60 210 C59.4323291 210.60618164 58.8646582 211.21236328 58.27978516 211.83691406 C50.14298572 220.43558774 41.50648079 227.96214194 32 235 C31.44908691 235.41701172 30.89817383 235.83402344 30.33056641 236.26367188 C23.16357501 241.68596929 15.70716193 246.56571789 8 251.1875 C6.79790894 251.9290332 6.79790894 251.9290332 5.5715332 252.68554688 C2.194098 254.66036439 -0.119607 255.97986395 -4.07421875 256.0703125 C-7.92990763 254.65982017 -11.30989376 252.81678221 -14.8125 250.6875 C-15.54807129 250.24672119 -16.28364258 249.80594238 -17.04150391 249.35180664 C-25.31980079 244.31395208 -33.22079526 238.77220309 -41 233 C-41.9384375 232.3090625 -42.876875 231.618125 -43.84375 230.90625 C-83.01537254 200.43943247 -104.6332152 157.50923509 -111 109 C-111.08886978 108.34013596 -111.17773956 107.68027191 -111.26930237 107.00041199 C-112.02408389 100.90523334 -112.16111895 94.88323635 -112.16796875 88.74609375 C-112.17129715 87.68697281 -112.17462555 86.62785187 -112.17805481 85.53663635 C-112.18309413 83.30364411 -112.18546407 81.07064441 -112.18530273 78.83764648 C-112.18747789 75.47171158 -112.20563489 72.10611097 -112.22460938 68.74023438 C-112.25424803 56.99388023 -111.91919004 45.60539111 -110 34 C-103.45265373 32.47219557 -96.90227819 30.97097072 -90.328125 29.5625 C-61.70679009 23.31887311 -33.89158466 14.57756749 -7.88574219 0.88696289 C-4.99808819 -0.47125138 -3.18754862 -0.38682037 0 0 Z M-8.953125 15.23046875 C-9.95835205 15.70154053 -10.9635791 16.1726123 -11.99926758 16.65795898 C-13.60838013 17.41508179 -13.60838013 17.41508179 -15.25 18.1875 C-24.06379244 22.28401472 -32.77966465 25.92655488 -42 29 C-43.69142215 29.6366765 -45.38282647 30.2734004 -47.07421875 30.91015625 C-53.28642163 33.17711886 -59.59444658 34.87384375 -66 36.5 C-67.16958252 36.80043213 -68.33916504 37.10086426 -69.54418945 37.41040039 C-79.30801738 39.88892597 -89.11585421 42.06169614 -99 44 C-100.14042114 53.58006253 -100.20169862 63.11799389 -100.1875 72.75 C-100.18656342 73.56913879 -100.18562683 74.38827759 -100.18466187 75.23223877 C-100.06493482 123.63617105 -88.56797723 167.91206201 -55 204 C-53.67548828 205.44826172 -53.67548828 205.44826172 -52.32421875 206.92578125 C-40.52456678 219.2984057 -26.20984533 228.99119922 -11.71289062 237.92675781 C-10.22162876 238.86113454 -8.77060749 239.85913687 -7.328125 240.8671875 C-5.07837845 242.1796644 -5.07837845 242.1796644 -2.64453125 241.95703125 C0.966859 240.65010273 4.09552255 238.74853591 7.3125 236.6875 C8.01036621 236.2445459 8.70823242 235.8015918 9.42724609 235.34521484 C37.24902995 217.41478925 60.52678279 195.5118315 76 166 C76.79857422 164.4840625 76.79857422 164.4840625 77.61328125 162.9375 C85.30563256 147.3540286 89.16812542 130.05496464 92 113 C92.17789063 111.95537598 92.17789063 111.95537598 92.359375 110.88964844 C94.08626732 100.24561872 94.1781854 89.56961784 94.1875 78.8125 C94.18858765 78.14126099 94.18967529 77.47002197 94.1907959 76.77844238 C94.58946709 60.23328806 94.58946709 60.23328806 92 44 C90.97753174 43.77860352 89.95506348 43.55720703 88.90161133 43.32910156 C85.0442498 42.49229021 81.18854338 41.64805046 77.33325195 40.80175781 C75.67645596 40.43910803 74.01923944 40.07837315 72.36157227 39.71972656 C59.9136254 37.0246162 47.68360564 34.19271362 36 29 C33.83895996 28.31531405 31.67186552 27.64952987 29.5 27 C21.15670547 24.38281724 13.41743058 20.52559068 5.59375 16.65820312 C4.63855469 16.18705078 3.68335938 15.71589844 2.69921875 15.23046875 C1.84158936 14.80145264 0.98395996 14.37243652 0.1003418 13.93041992 C-3.60522109 12.28891113 -5.42757231 13.56081666 -8.953125 15.23046875 Z " fill="#F5F5F5" transform="translate(131,0)"/>
<path d="M0 0 C12.375 -0.061875 12.375 -0.061875 25 -0.125 C27.58972656 -0.14320801 30.17945313 -0.16141602 32.84765625 -0.18017578 C34.91926873 -0.18602155 36.99088352 -0.19111691 39.0625 -0.1953125 C40.12275391 -0.20554443 41.18300781 -0.21577637 42.27539062 -0.22631836 C51.06410702 -0.2283718 59.62575553 0.8000173 67 6 C73.69615198 13.05928386 74.42323953 18.94316654 74.34375 28.51171875 C73.71425573 34.89965493 70.65095278 38.69396214 66 42.875 C63.34019175 44.75903085 61.08486084 46.00195679 58 47 C59.28547021 50.85641062 60.65361977 51.19642224 64.125 53.1875 C74.16084227 59.43721056 79.84433511 68.00040114 84 79 C84.33 81.97 84.66 84.94 85 88 C77.08 88 69.16 88 61 88 C60.29875 86.185 59.5975 84.37 58.875 82.5 C54.47721895 72.02909274 48.6432931 65.93174489 38.9375 60.1875 C35.43015755 58.63298776 35.43015755 58.63298776 29 58 C29 51.4 29 44.8 29 38 C37.1875 37.6875 37.1875 37.6875 39.73901367 37.61206055 C44.25765631 37.39131145 47.30362281 36.85758391 51 34 C53.32106991 30.79471299 53.55405751 27.87840257 53 24 C50.44975635 20.89835231 48.82300753 19.27433584 45 18 C43.08234406 17.85060226 41.16053478 17.75189717 39.23828125 17.68359375 C37.56088867 17.62075195 37.56088867 17.62075195 35.84960938 17.55664062 C34.68236328 17.51732422 33.51511719 17.47800781 32.3125 17.4375 C31.13365234 17.39431641 29.95480469 17.35113281 28.74023438 17.30664062 C25.82694117 17.20048824 22.91356243 17.09843758 20 17 C20.01047363 18.21059082 20.02094727 19.42118164 20.03173828 20.66845703 C20.06803343 25.17477442 20.0909351 29.68107896 20.10986328 34.1875 C20.11989919 36.13511328 20.13353088 38.08271157 20.15087891 40.03027344 C20.17523328 42.83532417 20.18650737 45.64017505 20.1953125 48.4453125 C20.20563507 49.31116974 20.21595764 50.17702698 20.22659302 51.06912231 C20.22797338 58.56569915 18.79946787 63.84419965 13.70703125 69.45703125 C6.1045271 76.32885994 -5.29440069 75.21056717 -14.8125 75.25 C-16.04548828 75.270625 -17.27847656 75.29125 -18.54882812 75.3125 C-28.3194 75.35423229 -36.18509684 74.21640024 -44 68 C-50.93404634 60.58218299 -52.44597493 54.98581355 -52.29296875 45.1328125 C-52.28872391 44.09808807 -52.28447906 43.06336365 -52.28010559 41.99728394 C-52.26336996 38.70625319 -52.22572649 35.41584434 -52.1875 32.125 C-52.17244658 29.8880297 -52.15875933 27.65104977 -52.14648438 25.4140625 C-52.11348306 19.94247027 -52.06173541 14.47134043 -52 9 C-45.4 9 -38.8 9 -32 9 C-31.96261719 11.74570313 -31.92523438 14.49140625 -31.88671875 17.3203125 C-31.84045443 19.99129012 -31.78923866 22.66213033 -31.73754883 25.33300781 C-31.70437704 27.18350819 -31.67632113 29.03410786 -31.65356445 30.88476562 C-31.6198755 33.55121003 -31.5675534 36.2167509 -31.51171875 38.8828125 C-31.50532883 39.70492218 -31.4989389 40.52703186 -31.49235535 41.37405396 C-31.36821666 46.26804244 -30.83414544 49.8333049 -28 54 C-20.82768459 58.88648444 -20.82768459 58.88648444 -1 57 C-0.67 38.19 -0.34 19.38 0 0 Z " fill="#F8F8F8" transform="translate(112,75)"/>
<path d="M0 0 C1.33418404 0.64026434 2.66886345 1.27949697 4.00390625 1.91796875 C4.73432129 2.28196777 5.46473633 2.6459668 6.21728516 3.02099609 C16.41536486 8.09349503 26.78557633 11.86770626 37.64550781 15.25683594 C39.87486257 15.96050204 42.09018679 16.69639396 44.3046875 17.4453125 C55.0447209 21.02180116 65.71971194 23.96499058 76.8125 26.25 C78.08931641 26.518125 79.36613281 26.78625 80.68164062 27.0625 C83.78667433 27.71374302 86.89273864 28.35948635 90 29 C93.17813594 39.76766457 92.20696089 52.72012408 92.1875 63.8125 C92.18656342 64.51165527 92.18562683 65.21081055 92.18466187 65.93115234 C92.04132477 115.51590111 76.43184681 159.01533807 41.54052734 194.48242188 C37.62080958 198.34374765 33.40143075 201.70854305 29 205 C28.34370605 205.4935498 27.68741211 205.98709961 27.01123047 206.49560547 C19.10350106 212.41528867 11.07842712 218.15640637 2.6875 223.375 C2.08389648 223.76236328 1.48029297 224.14972656 0.85839844 224.54882812 C-1.65690965 226.0640052 -3.38422327 227.05333248 -6.359375 226.7956543 C-9.46686096 225.85932879 -11.69128394 224.49153916 -14.38671875 222.68359375 C-15.40830078 222.00103516 -16.42988281 221.31847656 -17.48242188 220.61523438 C-18.54009766 219.89658203 -19.59777344 219.17792969 -20.6875 218.4375 C-22.24500977 217.40012695 -22.24500977 217.40012695 -23.83398438 216.34179688 C-34.25519383 209.33116506 -43.81046512 201.55158369 -53 193 C-53.66644531 192.38769531 -54.33289063 191.77539062 -55.01953125 191.14453125 C-70.69762197 176.16892118 -82.11362971 157.05072447 -90 137 C-90.44859375 135.91074219 -90.8971875 134.82148438 -91.359375 133.69921875 C-100.81472216 109.33127159 -102.15797076 83.5763372 -102.1875 57.75 C-102.18867828 56.95068054 -102.18985657 56.15136108 -102.19107056 55.32781982 C-102.18959517 46.50204399 -102.04485431 37.77725717 -101 29 C-100.2565332 28.84966309 -99.51306641 28.69932617 -98.74707031 28.54443359 C-84.02273373 25.54284695 -69.52953231 22.31725697 -55.22119141 17.70703125 C-53.02308196 17.00734726 -50.81733022 16.34227846 -48.60546875 15.6875 C-39.91063132 13.09692863 -31.84039414 9.84942306 -23.68310547 5.86962891 C-21.02620762 4.5824517 -18.35756222 3.32210834 -15.6875 2.0625 C-14.82672852 1.63614258 -13.96595703 1.20978516 -13.07910156 0.77050781 C-7.98163242 -1.61626039 -5.26952093 -2.72609883 0 0 Z M-15.0625 7.75 C-20.50900616 10.36762075 -25.93210902 12.91594197 -31.58398438 15.06689453 C-33.93874064 15.97634062 -36.26830437 16.93540566 -38.6015625 17.8984375 C-43.96357417 20.04265093 -49.39337652 21.76823825 -54.9375 23.375 C-55.95078369 23.67100098 -56.96406738 23.96700195 -58.00805664 24.27197266 C-67.42796413 26.9580538 -76.94777462 29.10873354 -86.52905273 31.13427734 C-88.16789429 31.48159912 -88.16789429 31.48159912 -89.83984375 31.8359375 C-90.81300537 32.03751465 -91.78616699 32.2390918 -92.78881836 32.44677734 C-94.96003188 32.78858527 -94.96003188 32.78858527 -96 34 C-96.11447149 35.62676513 -96.1596144 37.25846515 -96.17700195 38.88916016 C-96.18983719 39.93600983 -96.20267242 40.9828595 -96.21589661 42.06143188 C-96.22328354 43.20904999 -96.23067047 44.35666809 -96.23828125 45.5390625 C-96.246353 46.72607758 -96.25442474 47.91309265 -96.26274109 49.13607788 C-96.27662284 51.66996794 -96.28732652 54.20387702 -96.29516602 56.73779297 C-96.31208805 60.5326195 -96.35589756 64.32650619 -96.40039062 68.12109375 C-96.69278035 113.7187289 -82.29868446 155.01260033 -50.7421875 188.26171875 C-46.44128914 192.55649047 -41.80943824 196.29436726 -37 200 C-36.01515625 200.78890625 -35.0303125 201.5778125 -34.015625 202.390625 C-27.87673466 207.27799997 -21.52189467 211.82509891 -15 216.1875 C-14.28183105 216.68169434 -13.56366211 217.17588867 -12.82373047 217.68505859 C-12.13939941 218.13316895 -11.45506836 218.5812793 -10.75 219.04296875 C-9.84507813 219.64661255 -9.84507813 219.64661255 -8.921875 220.26245117 C-6.23180555 221.29480633 -4.72846053 220.85461074 -2 220 C0.39063767 218.74570329 0.39063767 218.74570329 2.73046875 217.12109375 C3.61114014 216.53352295 4.49181152 215.94595215 5.39916992 215.34057617 C6.77939331 214.39855347 6.77939331 214.39855347 8.1875 213.4375 C9.60542847 212.47904175 9.60542847 212.47904175 11.05200195 211.5012207 C17.27710327 207.26052857 23.32399121 202.96125213 29 198 C29.79921875 197.3090625 30.5984375 196.618125 31.421875 195.90625 C33.98736017 193.64352395 36.50065292 191.33551793 39 189 C40.3303125 187.76830078 40.3303125 187.76830078 41.6875 186.51171875 C63.28172066 165.80703275 75.48417306 139.01908649 82.125 110.1875 C82.28371582 109.51356201 82.44243164 108.83962402 82.60595703 108.14526367 C85.41608946 95.42283973 86.31629 82.75668097 86.20581055 69.77319336 C86.18753541 67.5667757 86.18530233 65.36078264 86.18554688 63.15429688 C86.16002124 53.07501729 85.68782023 43.05452286 85 33 C84.25242432 32.86013672 83.50484863 32.72027344 82.73461914 32.57617188 C53.50272756 27.02646213 24.47816654 19.00158353 -1.92602539 4.92456055 C-6.83047921 2.73819602 -10.65176491 5.5886684 -15.0625 7.75 Z " fill="#0F0909" transform="translate(133,15)"/>
<path d="M0 0 C3.30130618 1.27743206 6.41417815 2.88736671 9.5625 4.5 C34.50874173 16.78998118 60.77302438 24.34193988 87.86035156 30.30273438 C93.24844162 31.49934287 98.62384188 32.75104861 104 34 C105.73879908 47.76408272 106.36589965 61.31924531 106.3125 75.1875 C106.31067719 76.17412628 106.30885437 77.16075256 106.30697632 78.17727661 C106.26099332 92.98155392 105.81794024 107.42368864 103 122 C102.74259033 123.38203613 102.74259033 123.38203613 102.47998047 124.79199219 C96.33284651 156.92848338 82.42981386 186.09613579 60 210 C59.4323291 210.60618164 58.8646582 211.21236328 58.27978516 211.83691406 C50.14298572 220.43558774 41.50648079 227.96214194 32 235 C31.44908691 235.41701172 30.89817383 235.83402344 30.33056641 236.26367188 C23.16357501 241.68596929 15.70716193 246.56571789 8 251.1875 C6.79790894 251.9290332 6.79790894 251.9290332 5.5715332 252.68554688 C2.194098 254.66036439 -0.119607 255.97986395 -4.07421875 256.0703125 C-7.92990763 254.65982017 -11.30989376 252.81678221 -14.8125 250.6875 C-15.54807129 250.24672119 -16.28364258 249.80594238 -17.04150391 249.35180664 C-25.31980079 244.31395208 -33.22079526 238.77220309 -41 233 C-41.9384375 232.3090625 -42.876875 231.618125 -43.84375 230.90625 C-83.01537254 200.43943247 -104.6332152 157.50923509 -111 109 C-111.08886978 108.34013596 -111.17773956 107.68027191 -111.26930237 107.00041199 C-112.02408389 100.90523334 -112.16111895 94.88323635 -112.16796875 88.74609375 C-112.17129715 87.68697281 -112.17462555 86.62785187 -112.17805481 85.53663635 C-112.18309413 83.30364411 -112.18546407 81.07064441 -112.18530273 78.83764648 C-112.18747789 75.47171158 -112.20563489 72.10611097 -112.22460938 68.74023438 C-112.25424803 56.99388023 -111.91919004 45.60539111 -110 34 C-103.45265373 32.47219557 -96.90227819 30.97097072 -90.328125 29.5625 C-61.70679009 23.31887311 -33.89158466 14.57756749 -7.88574219 0.88696289 C-4.99808819 -0.47125138 -3.18754862 -0.38682037 0 0 Z M-11.0625 5.23046875 C-12.02542969 5.70419922 -12.98835938 6.17792969 -13.98046875 6.66601562 C-14.97691406 7.16810547 -15.97335938 7.67019531 -17 8.1875 C-29.86990366 14.62245183 -43.03318664 19.54784994 -56.75 23.875 C-57.42233673 24.08832977 -58.09467346 24.30165955 -58.78738403 24.52145386 C-71.30078151 28.46071764 -83.9392265 31.3835065 -96.80175781 33.93115234 C-97.81844292 34.13288811 -97.81844292 34.13288811 -98.85566711 34.33869934 C-100.69090228 34.69951741 -102.52789523 35.05136186 -104.36499023 35.40258789 C-106.9114483 35.7336959 -106.9114483 35.7336959 -108 37 C-109.04205797 44.82717842 -109.17818656 52.74741307 -109.23828125 60.6328125 C-109.24798447 61.70056915 -109.25768768 62.76832581 -109.26768494 63.86843872 C-109.29242486 67.28733126 -109.30518091 70.70602716 -109.3125 74.125 C-109.31511841 75.28962769 -109.31773682 76.45425537 -109.32043457 77.6541748 C-109.32449248 94.46608647 -108.78695635 110.55378955 -105 127 C-104.70650218 128.43712725 -104.41472464 129.87460733 -104.125 131.3125 C-94.27962259 177.31543173 -64.51132547 214.88912469 -25.69775391 240.34814453 C-23.80287506 241.57238343 -21.90171559 242.78641466 -20 244 C-19.32662598 244.43715332 -18.65325195 244.87430664 -17.95947266 245.32470703 C-15.94173425 246.62962889 -13.91123748 247.91168211 -11.875 249.1875 C-11.25955322 249.58662598 -10.64410645 249.98575195 -10.01000977 250.39697266 C-6.53600241 252.53535591 -6.53600241 252.53535591 -2.56616211 252.73876953 C0.0186967 251.99461743 1.99218004 251.06876347 4.30078125 249.69921875 C5.10507568 249.22282959 5.90937012 248.74644043 6.73803711 248.25561523 C7.58760986 247.73813721 8.43718262 247.22065918 9.3125 246.6875 C10.19752197 246.15133057 11.08254395 245.61516113 11.99438477 245.06274414 C20.40661089 239.88476834 28.29698566 234.17490285 36 228 C36.57298828 227.54270508 37.14597656 227.08541016 37.73632812 226.61425781 C62.73175666 206.49916498 80.70353628 182.08883468 92 152 C92.24588867 151.34773437 92.49177734 150.69546875 92.74511719 150.0234375 C95.9888527 141.17604477 97.92739829 132.10508656 99.75 122.875 C100.06650513 121.28449829 100.06650513 121.28449829 100.3894043 119.66186523 C103.01467224 105.67587686 103.18653561 91.68791596 103.18530273 77.50610352 C103.18748832 74.70248189 103.20571454 71.8992556 103.22460938 69.09570312 C103.25817811 57.91510171 102.61288021 47.06536343 101 36 C100.36312256 35.87995605 99.72624512 35.75991211 99.07006836 35.63623047 C65.13392472 29.1846306 31.83873077 20.53010139 1.2956543 3.92236328 C-3.42282773 2.02654013 -6.65353717 3.01725919 -11.0625 5.23046875 Z " fill="#201F23" transform="translate(131,0)"/>
<path d="M0 0 C9.384375 -0.0825 18.76875 -0.165 28.4375 -0.25 C31.38357178 -0.28641602 34.32964355 -0.32283203 37.36499023 -0.36035156 C39.72118401 -0.37204287 42.07738591 -0.38223365 44.43359375 -0.390625 C45.63987427 -0.41108887 46.84615479 -0.43155273 48.08898926 -0.45263672 C57.81367894 -0.45663248 65.30064151 1.5585984 72.4921875 8.33203125 C78.1519224 14.5929297 78.76108042 20.9052502 78.50390625 29.234375 C77.57865839 36.14863031 74.98355916 41.50642373 69.59765625 46.0078125 C67.44572813 47.46962781 65.3003914 48.78846053 63 50 C63.6290625 50.40089844 64.258125 50.80179688 64.90625 51.21484375 C77.29612056 59.44365839 84.73254724 69.68338429 89 84 C89.1875 87.3125 89.1875 87.3125 89 90 C86.38295946 92.61704054 79.14032509 91.33241346 75.625 91.375 C73.88089844 91.43107422 73.88089844 91.43107422 72.1015625 91.48828125 C70.9878125 91.49988281 69.8740625 91.51148438 68.7265625 91.5234375 C67.70127441 91.54325684 66.67598633 91.56307617 65.61962891 91.58349609 C63 91 63 91 61.23364258 88.65087891 C60.6229895 87.33869385 60.6229895 87.33869385 60 86 C59.27490234 84.5459375 59.27490234 84.5459375 58.53515625 83.0625 C57.55387397 81.02184931 56.57470414 78.98018146 55.59765625 76.9375 C52.99215199 72.14693961 50.14241379 68.77317217 45.5625 65.8125 C44.82128906 65.32394531 44.08007812 64.83539063 43.31640625 64.33203125 C38.78474458 61.72613474 34.02476538 60.37934736 29 59 C28.97111854 55.68751813 28.95324201 52.37506833 28.9375 49.0625 C28.92912109 48.11697266 28.92074219 47.17144531 28.91210938 46.19726562 C28.90888672 45.29814453 28.90566406 44.39902344 28.90234375 43.47265625 C28.89710693 42.64000244 28.89187012 41.80734863 28.88647461 40.94946289 C29 39 29 39 30 38 C33.27901567 37.82980888 36.55094107 37.70301263 39.83398438 37.65820312 C45.30131101 37.44112552 49.00081903 35.99918097 53 32 C53.50070321 28.62642666 53.50070321 28.62642666 53 25 C50.7577977 22.20848311 48.87853548 21.1351655 45.33886719 20.59057617 C42.11748339 20.38125268 38.91534363 20.29150354 35.6875 20.25 C34.00430664 20.20552734 34.00430664 20.20552734 32.28710938 20.16015625 C29.52466793 20.08962583 26.76306226 20.03684507 24 20 C24.01571045 21.13953125 24.0314209 22.2790625 24.04760742 23.453125 C24.10220033 27.70972534 24.13645623 31.96629515 24.16479492 36.22314453 C24.17981496 38.06011166 24.20023709 39.89704334 24.22631836 41.73388672 C24.26300202 44.38518054 24.27979438 47.03599732 24.29296875 49.6875 C24.30845261 50.49928711 24.32393646 51.31107422 24.33988953 52.14746094 C24.3418315 58.83405767 22.85176521 63.98230854 19.3125 69.75 C10.89362166 77.94134109 -0.15870709 78.34280408 -11.25 78.3125 C-12.99603516 78.33666992 -12.99603516 78.33666992 -14.77734375 78.36132812 C-25.98424672 78.36760299 -36.40919918 76.70669899 -45 69 C-51.82020086 60.98805878 -52.15266092 53.7303453 -52.09765625 43.5703125 C-52.0962413 42.57998016 -52.09482635 41.58964783 -52.09336853 40.56930542 C-52.08779252 37.42117227 -52.07524442 34.27311148 -52.0625 31.125 C-52.0574819 28.98437603 -52.05291954 26.84375094 -52.04882812 24.703125 C-52.03783094 19.46872551 -52.02111675 14.23436793 -52 9 C-48.18751574 8.97112764 -44.3750593 8.95324508 -40.5625 8.9375 C-39.47388672 8.92912109 -38.38527344 8.92074219 -37.26367188 8.91210938 C-36.22919922 8.90888672 -35.19472656 8.90566406 -34.12890625 8.90234375 C-32.69140015 8.89448853 -32.69140015 8.89448853 -31.22485352 8.88647461 C-29 9 -29 9 -28 10 C-27.88912275 12.89693056 -27.8383475 15.77402917 -27.82421875 18.671875 C-27.80101329 20.46876162 -27.77689566 22.26563665 -27.75195312 24.0625 C-27.71687128 26.90437482 -27.68751975 29.74582591 -27.67407227 32.58789062 C-27.65857613 35.32474627 -27.61834662 38.06035065 -27.57421875 40.796875 C-27.57612717 41.64288269 -27.57803558 42.48889038 -27.58000183 43.36053467 C-27.49772471 47.3380745 -27.28162267 49.52491815 -25.21411133 53.01269531 C-18.86677177 58.70983326 -7.06155026 56.62833946 0 57 C0 38.19 0 19.38 0 0 Z M2 1 C1.67 19.81 1.34 38.62 1 58 C-21 58 -21 58 -27 54 C-29.64735 49.70991327 -29.34562234 44.88199538 -29.4140625 39.98046875 C-29.43342865 39.12189774 -29.4527948 38.26332672 -29.4727478 37.3787384 C-29.53231556 34.64842526 -29.57883734 31.91806943 -29.625 29.1875 C-29.66320079 27.33136227 -29.70225375 25.47524188 -29.7421875 23.61914062 C-29.83959555 19.07951952 -29.91934419 14.5400731 -30 10 C-36.6 10 -43.2 10 -50 10 C-50.1151874 16.52984598 -50.21460841 23.05612676 -50.2746582 29.58618164 C-50.2997055 31.80440252 -50.33375331 34.02254167 -50.37719727 36.24047852 C-50.43827957 39.44047278 -50.46630846 42.63937011 -50.48828125 45.83984375 C-50.51408768 46.82145981 -50.5398941 47.80307587 -50.56648254 48.81443787 C-50.56955902 56.47432841 -48.5911652 62.2545116 -43.22602844 67.85020447 C-34.12978397 76.18785147 -24.94898075 76.18147156 -13.1875 76.1875 C-11.94162109 76.19974609 -10.69574219 76.21199219 -9.41210938 76.22460938 C-0.26854458 76.23916147 9.59217985 76.10386773 16.66796875 69.42578125 C22.31865743 63.23821003 22.14553725 57.62336669 22.09765625 49.54296875 C22.0962413 48.64000565 22.09482635 47.73704254 22.09336853 46.80671692 C22.08778823 43.93361037 22.07523934 41.06058284 22.0625 38.1875 C22.05748245 36.23502717 22.05291999 34.28255311 22.04882812 32.33007812 C22.03782525 27.55335515 22.02057418 22.77669096 22 18 C26.04246865 18.0812083 30.08346536 18.19402581 34.125 18.3125 C35.83816406 18.34633789 35.83816406 18.34633789 37.5859375 18.38085938 C48.38068382 18.72604022 48.38068382 18.72604022 53 22 C55.33909307 25.5086396 55.41291057 26.87089433 55 31 C53.79433945 33.6524532 52.8319523 35.41347363 50.4375 37.1015625 C46.76871779 38.45383799 43.13102695 38.46996466 39.25 38.625 C36.5275 38.74875 33.805 38.8725 31 39 C31 45.6 31 52.2 31 59 C33.97 59.66 36.94 60.32 40 61 C50.64959471 65.63154119 56.59373426 73.10913111 61.0546875 83.58203125 C61.75337886 85.3691798 62.39319941 87.17959823 63 89 C70.92 89 78.84 89 87 89 C85.69421869 77.24796818 81.25645134 65.90876877 72 58 C69.14008266 56.06465867 66.25317259 54.26101589 63.2578125 52.54296875 C61 51 61 51 60 48 C60.66 47.814375 61.32 47.62875 62 47.4375 C68.52198595 44.31238173 73.298419 39.74571596 76 33 C76.86845884 25.58404267 76.8719419 18.49933104 73 12 C72.2265625 10.700625 72.2265625 10.700625 71.4375 9.375 C62.88887852 1.04557394 52.50287452 0.84860239 41.2578125 0.90234375 C40.26128662 0.90335083 39.26476074 0.90435791 38.23803711 0.90539551 C34.53367961 0.91060736 30.82933859 0.92456857 27.125 0.9375 C14.688125 0.9684375 14.688125 0.9684375 2 1 Z " fill="#291515" transform="translate(110,74)"/>
<path d="M0 0 C18.48 0 36.96 0 56 0 C56 0.33 56 0.66 56 1 C38.18 1 20.36 1 2 1 C2.01160156 5.10308594 2.02320313 9.20617187 2.03515625 13.43359375 C2.04158324 16.69687621 2.04700745 19.9601569 2.05175018 23.22344208 C2.05703976 26.67281862 2.06411301 30.12217075 2.07543945 33.5715332 C2.08834235 37.52555043 2.09322918 41.47955756 2.09765625 45.43359375 C2.10281754 46.67523788 2.10797882 47.91688202 2.11329651 49.19615173 C2.11337204 50.33725906 2.11344757 51.47836639 2.11352539 52.65405273 C2.115746 53.664431 2.11796661 54.67480927 2.12025452 55.71580505 C2 58 2 58 1 59 C-2.55371273 59.30866679 -6.12203931 59.27850006 -9.6875 59.3125 C-10.68201172 59.34150391 -11.67652344 59.37050781 -12.70117188 59.40039062 C-18.60025805 59.45141399 -22.51525283 59.25874417 -27 55 C-30.25001559 49.88209806 -30.40328294 45.73990387 -30.29296875 39.8828125 C-30.28872391 39.02565643 -30.28447906 38.16850037 -30.28010559 37.28536987 C-30.26339886 34.56491836 -30.22576219 31.84522518 -30.1875 29.125 C-30.17244278 27.27344825 -30.1587562 25.42188481 -30.14648438 23.5703125 C-30.11608142 19.04635235 -30.05734671 14.52401856 -30 10 C-36.6 10.33 -43.2 10.66 -50 11 C-50.33 25.19 -50.66 39.38 -51 54 C-51.33 54 -51.66 54 -52 54 C-52 39.15 -52 24.3 -52 9 C-48.225625 8.979375 -44.45125 8.95875 -40.5625 8.9375 C-39.37084229 8.928396 -38.17918457 8.91929199 -36.95141602 8.90991211 C-35.55427368 8.90616577 -35.55427368 8.90616577 -34.12890625 8.90234375 C-32.69140015 8.89448853 -32.69140015 8.89448853 -31.22485352 8.88647461 C-29 9 -29 9 -28 10 C-27.88912275 12.89693056 -27.8383475 15.77402917 -27.82421875 18.671875 C-27.80101329 20.46876162 -27.77689566 22.26563665 -27.75195312 24.0625 C-27.71687128 26.90437482 -27.68751975 29.74582591 -27.67407227 32.58789062 C-27.65857613 35.32474627 -27.61834662 38.06035065 -27.57421875 40.796875 C-27.57612717 41.64288269 -27.57803558 42.48889038 -27.58000183 43.36053467 C-27.49772471 47.3380745 -27.28162267 49.52491815 -25.21411133 53.01269531 C-18.86677177 58.70983326 -7.06155026 56.62833946 0 57 C0 38.19 0 19.38 0 0 Z " fill="#1E0F10" transform="translate(110,74)"/>
<path d="M0 0 C0.33 0 0.66 0 1 0 C1.25523438 1.77890625 1.25523438 1.77890625 1.515625 3.59375 C3.77876781 18.91937063 6.95932415 33.34639996 12.88964844 47.70703125 C13.19161133 48.46886719 13.49357422 49.23070312 13.8046875 50.015625 C14.08296387 50.68883789 14.36124023 51.36205078 14.64794922 52.05566406 C15.11292861 54.6236917 14.3367657 55.82206189 13 58 C4.44753246 45.17129869 -0.82430461 24.25604735 -2 9 C-1.57421875 6.88671875 -1.57421875 6.88671875 -1 5 C-0.65939189 3.33480481 -0.32441604 1.66842534 0 0 Z " fill="#1F1D22" transform="translate(23,108)"/>
<path d="M0 0 C4.41985753 4.41985753 3.1609626 12.35050869 3.16796875 18.25390625 C3.17129715 19.23238022 3.17462555 20.21085419 3.17805481 21.21897888 C3.18310209 23.2806654 3.18546382 25.34236004 3.18530273 27.40405273 C3.187495 30.555312 3.2056899 33.70622419 3.22460938 36.85742188 C3.22754261 38.86458214 3.22952787 40.87174406 3.23046875 42.87890625 C3.23765427 43.81859756 3.24483978 44.75828888 3.25224304 45.72645569 C3.23643592 50.25383701 3.16644794 53.89517952 1 58 C0.67 58 0.34 58 0 58 C0 38.86 0 19.72 0 0 Z " fill="#211F22" transform="translate(234,45)"/>
<path d="M0 0 C0.33 0 0.66 0 1 0 C1.02505615 0.82089111 1.0501123 1.64178223 1.07592773 2.48754883 C1.17211345 5.58708439 1.27126811 8.68650805 1.37231445 11.78588867 C1.43598477 13.76539182 1.49635298 15.74500031 1.55664062 17.72460938 C1.77568748 24.38026375 2.13398789 30.97276054 2.79272461 37.59887695 C3.08439453 40.97764453 3.09607871 44.2960507 3.0625 47.6875 C3.05347656 48.88761719 3.04445313 50.08773437 3.03515625 51.32421875 C3.01775391 52.64873047 3.01775391 52.64873047 3 54 C-2.69737404 48.30262596 -1.22409803 34.95762079 -1.23342896 27.26730347 C-1.22752876 25.61853547 -1.21829971 23.96977617 -1.20581055 22.32104492 C-1.18725098 19.77838367 -1.18530358 17.23608213 -1.18554688 14.69335938 C-1.180641 13.0729135 -1.1748168 11.45247008 -1.16796875 9.83203125 C-1.16685593 9.07380569 -1.1657431 8.31558014 -1.16459656 7.53437805 C-1.11618068 2.23236135 -1.11618068 2.23236135 0 0 Z " fill="#100E12" transform="translate(20,61)"/>
<path d="M0 0 C2.97 0 5.94 0 9 0 C6.8614515 2.1385485 5.86724686 2.42655063 3 3 C1.82805173 14.06089094 1.67254413 25.13864863 1.4375 36.25 C1.39421155 38.17058041 1.35059435 40.09115345 1.30664062 42.01171875 C1.20063784 46.67440276 1.09908049 51.33716397 1 56 C0.67 56 0.34 56 0 56 C-0.33 47.09 -0.66 38.18 -1 29 C-1.33 29 -1.66 29 -2 29 C-2.30384747 19.14183749 -1.39879438 9.72911448 0 0 Z " fill="#363638" transform="translate(21,34)"/>
<path d="M0 0 C8.62484265 3.88673167 12.38193262 12.72857487 16 21 C17.54706797 25.2192763 18.31505862 28.48415978 18 33 C17 34 17 34 14.59155273 34.11352539 C13.54942627 34.10828857 12.5072998 34.10305176 11.43359375 34.09765625 C10.30888672 34.09443359 9.18417969 34.09121094 8.02539062 34.08789062 C6.84138672 34.07951172 5.65738281 34.07113281 4.4375 34.0625 C3.24962891 34.05798828 2.06175781 34.05347656 0.83789062 34.04882812 C-2.10812226 34.03699675 -5.05403681 34.02051287 -8 34 C-8.33 33.34 -8.66 32.68 -9 32 C-0.75 32 7.5 32 16 32 C12.92006816 19.68027265 9.91681871 11.57844409 1.3203125 2.4609375 C0 1 0 1 0 0 Z " fill="#251212" transform="translate(181,131)"/>
<path d="M0 0 C0.495 0.99 0.495 0.99 1 2 C-3.26444595 3.04882686 -7.5372323 4.0587802 -11.8125 5.0625 C-13.6059082 5.50432617 -13.6059082 5.50432617 -15.43554688 5.95507812 C-22.95926855 7.69762947 -29.36365865 8.28917627 -37 7 C-37 6.67 -37 6.34 -37 6 C-32.37596062 4.97340845 -27.74956402 3.95852407 -23.12060547 2.9543457 C-21.54666244 2.61119046 -19.97340789 2.2648612 -18.40087891 1.9152832 C-16.13878654 1.41299295 -13.87445371 0.92221614 -11.609375 0.43359375 C-10.90818542 0.27531601 -10.20699585 0.11703827 -9.48455811 -0.04603577 C-3.10865016 -1.39984908 -3.10865016 -1.39984908 0 0 Z " fill="#1A191C" transform="translate(60,27)"/>
<path d="M0 0 C0.66 0 1.32 0 2 0 C1.51399387 4.26267881 -1.16678123 6.72176353 -4 9.6875 C-4.48895752 10.20989258 -4.97791504 10.73228516 -5.48168945 11.27050781 C-9.88496128 15.94849356 -14.406676 20.50874987 -19 25 C-19.99 24.67 -20.98 24.34 -22 24 C-17.35995963 18.49955479 -12.43090019 13.39205672 -7.3046875 8.34375 C-5.41069751 6.41765848 -3.68123064 4.48399938 -2 2.375 C-1.34 1.59125 -0.68 0.8075 0 0 Z " fill="#171519" transform="translate(197,198)"/>
<path d="M0 0 C0.33 0 0.66 0 1 0 C1.00142502 0.556306 1.00285004 1.112612 1.00431824 1.68577576 C1.02410613 7.51065479 1.07857256 13.33449865 1.15258789 19.15893555 C1.17569024 21.32845618 1.19014526 23.49808773 1.19555664 25.66772461 C1.20490287 28.79871119 1.24601857 31.92797175 1.29296875 35.05859375 C1.2890361 36.01833603 1.28510345 36.97807831 1.28105164 37.96690369 C1.43688872 45.26783716 3.32198243 51.22154102 8.5131073 56.5544281 C9.94828611 57.7776537 11.47212662 58.89472989 13 60 C13.78375 60.598125 14.5675 61.19625 15.375 61.8125 C15.91125 62.204375 16.4475 62.59625 17 63 C16.01 63.495 16.01 63.495 15 64 C13.61047317 63.21260147 12.23912422 62.3931301 10.875 61.5625 C10.10929687 61.11003906 9.34359375 60.65757812 8.5546875 60.19140625 C4.19199849 56.44909962 0.59582129 52.05419297 -0.52633667 46.30198669 C-0.69006794 43.3177236 -0.67615981 40.38967038 -0.5859375 37.40234375 C-0.57744781 36.32747208 -0.56895813 35.2526004 -0.56021118 34.14515686 C-0.526859 30.74154694 -0.45161004 27.34038313 -0.375 23.9375 C-0.34487708 21.61787297 -0.31750538 19.29820847 -0.29296875 16.97851562 C-0.22712787 11.31818819 -0.12696324 5.6592689 0 0 Z " fill="#504949" transform="translate(59,85)"/>
<path d="M0 0 C8.71827218 2.85325271 17.35518532 5.93312545 26 9 C25.01 9.99 24.02 10.98 23 12 C14.38296958 9.68860831 6.23311977 6.39204534 -2 3 C-1.34 2.67 -0.68 2.34 0 2 C0 1.34 0 0.68 0 0 Z " fill="#2A282D" transform="translate(153,11)"/>
<path d="M0 0 C4.90687153 3.9939652 9.44270563 8.3040953 13.9375 12.75 C14.52942139 13.32903076 15.12134277 13.90806152 15.73120117 14.50463867 C17.19409125 15.96410929 18.60214515 17.47812494 20 19 C20 19.66 20 20.32 20 21 C16.22531329 20.43379699 14.52448107 18.87731019 11.890625 16.18359375 C11.13652344 15.41982422 10.38242188 14.65605469 9.60546875 13.86914062 C8.82816406 13.06669922 8.05085938 12.26425781 7.25 11.4375 C6.45722656 10.63119141 5.66445312 9.82488281 4.84765625 8.99414062 C2.89152954 7.00266222 0.94274281 5.00452279 -1 3 C-0.67 2.01 -0.34 1.02 0 0 Z " fill="#151416" transform="translate(62,203)"/>
<path d="M0 0 C9.13515215 2.34234671 16.70258113 8.29705345 22 16 C27 25.24050633 27 25.24050633 27 30 C26.34 30 25.68 30 25 30 C24.56300781 28.83984375 24.56300781 28.83984375 24.1171875 27.65625 C19.85591261 16.8288597 15.37681383 9.66664268 5 4 C3.34447652 3.30612377 1.68015479 2.63190356 0 2 C0 1.34 0 0.68 0 0 Z " fill="#2B1D1D" transform="translate(146,133)"/>
<path d="M0 0 C2.32442932 3.48664397 2.25705205 4.9053598 2.265625 9.0234375 C2.26820313 10.209375 2.27078125 11.3953125 2.2734375 12.6171875 C2.26570312 13.85726562 2.25796875 15.09734375 2.25 16.375 C2.25773438 17.60734375 2.26546875 18.8396875 2.2734375 20.109375 C2.27085937 21.29789063 2.26828125 22.48640625 2.265625 23.7109375 C2.26336914 24.79681152 2.26111328 25.88268555 2.25878906 27.00146484 C1.99628254 30.04307348 1.28460103 32.24773909 0 35 C-0.33 35 -0.66 35 -1 35 C-1.19847988 23.31174052 -0.59079499 11.66977237 0 0 Z " fill="#0B0A0C" transform="translate(235,68)"/>
<path d="M0 0 C-19.60717719 8.49343159 -19.60717719 8.49343159 -29 8 C-28.34 7.67 -27.68 7.34 -27 7 C-27 6.34 -27 5.68 -27 5 C-20.73588232 3.21365465 -14.50067947 1.61538549 -8.09375 0.4296875 C-2.28637413 -0.76212471 -2.28637413 -0.76212471 0 0 Z " fill="#131216" transform="translate(87,20)"/>
<path d="M0 0 C0.33 0 0.66 0 1 0 C2.51586503 8.58154998 3.30581039 16.3534177 2 25 C1.67 25 1.34 25 1 25 C0.46867611 22.41842632 -0.05034379 19.83538244 -0.5625 17.25 C-0.71396484 16.52039063 -0.86542969 15.79078125 -1.02148438 15.0390625 C-1.74978968 11.31284933 -2.07035162 8.62131812 -1 5 C-0.65939189 3.33480481 -0.32441604 1.66842534 0 0 Z " fill="#2F2E32" transform="translate(23,108)"/>
<path d="M0 0 C0.33 0 0.66 0 1 0 C1.33 1.65 1.66 3.3 2 5 C2.33 5 2.66 5 3 5 C2.85870713 7.41700987 2.71213513 9.83350429 2.5625 12.25 C2.50352539 13.27287109 2.50352539 13.27287109 2.44335938 14.31640625 C2.23333528 17.64448041 1.98065998 20.80255402 1 24 C0.34 24 -0.32 24 -1 24 C-1.16677223 15.95787245 -0.6466598 8.01396246 0 0 Z " fill="#121114" transform="translate(233,96)"/>
<path d="M0 0 C2.05494031 3.08241046 3.36343791 6.00614832 4.75 9.4375 C5.21921875 10.57058594 5.6884375 11.70367187 6.171875 12.87109375 C7 16 7 16 6.140625 18.41015625 C5.76421875 18.93480469 5.3878125 19.45945313 5 20 C1.64774064 14.97161096 -1.67458372 9.08110991 -0.75 2.875 C-0.37875 1.451875 -0.37875 1.451875 0 0 Z " fill="#302E32" transform="translate(31,146)"/>
<path d="M0 0 C1.25 1.5625 1.25 1.5625 2 4 C-0.37532663 9.6801289 -3.53225682 13.15589165 -9 16 C-11.75940176 17.06521024 -14.02936228 17.55440434 -17 18 C-17.99 17.34 -18.98 16.68 -20 16 C-18.205625 15.5978125 -18.205625 15.5978125 -16.375 15.1875 C-9.36225802 13.39411801 -5.14323463 10.91890662 -1 5 C-0.13457301 2.27886497 -0.13457301 2.27886497 0 0 Z " fill="#312222" transform="translate(131,133)"/>
<path d="M0 0 C3.87187551 1.25574341 6.06837517 2.34007927 8 6 C8.59108295 9.88425941 8.14190155 11.71619689 6.375 15.25 C3.70652528 18.33981284 1.92775068 19.10732939 -2 20 C-2 19.34 -2 18.68 -2 18 C-0.03277992 16.61876037 1.96868328 15.28511874 4 14 C5.36636155 12.84133079 5.36636155 12.84133079 5.375 9.6875 C5.3960675 5.85480383 5.3960675 5.85480383 2.5 3.6875 C1.675 3.130625 0.85 2.57375 0 2 C0 1.34 0 0.68 0 0 Z " fill="#2F2323" transform="translate(158,93)"/>
<path d="M0 0 C0.33 0.99 0.66 1.98 1 3 C-2.87422112 4.15402331 -6.75936974 5.23148154 -10.6875 6.1875 C-11.41324219 6.36667969 -12.13898438 6.54585937 -12.88671875 6.73046875 C-15.21599486 7.02754833 -16.75822679 6.62028936 -19 6 C-16.20964954 4.99619084 -13.41785145 3.9968055 -10.625 3 C-9.43390625 2.57074219 -9.43390625 2.57074219 -8.21875 2.1328125 C-7.45820312 1.86210937 -6.69765625 1.59140625 -5.9140625 1.3125 C-4.8614624 0.93544922 -4.8614624 0.93544922 -3.78759766 0.55078125 C-2 0 -2 0 0 0 Z " fill="#232026" transform="translate(93,15)"/>
<path d="M0 0 C-2.12251117 2.30104014 -4.15548556 3.81894459 -6.9375 5.25 C-7.60652344 5.60578125 -8.27554688 5.9615625 -8.96484375 6.328125 C-11.38269269 7.12634 -12.63011757 6.82707306 -15 6 C-10.40144929 2.28578596 -6.07508565 -0.53603697 0 0 Z " fill="#151318" transform="translate(126,2)"/>
<path d="M0 0 C2 1 2 1 3 3 C0.69 4.98 -1.62 6.96 -4 9 C-5.32 8.34 -6.64 7.68 -8 7 C-5.36 4.69 -2.72 2.38 0 0 Z " fill="#232125" transform="translate(174,221)"/>
<path d="M0 0 C3.81684226 1.55500981 6.19195732 4.03595495 9 7 C7.234375 7.68359375 7.234375 7.68359375 5 8 C3.078125 6.78515625 3.078125 6.78515625 1.25 5.0625 C0.63640625 4.49660156 0.0228125 3.93070313 -0.609375 3.34765625 C-1.06828125 2.90292969 -1.5271875 2.45820313 -2 2 C-1.34 1.34 -0.68 0.68 0 0 Z " fill="#242227" transform="translate(82,223)"/>
<path d="M0 0 C0.6875 1.6875 0.6875 1.6875 1 4 C-0.7966124 8.09228381 -2.90771619 10.2033876 -7 12 C-9.3125 11.6875 -9.3125 11.6875 -11 11 C-9.63875 10.1646875 -9.63875 10.1646875 -8.25 9.3125 C-4.57596747 6.69828455 -2.02076161 4.04152322 0 0 Z " fill="#3A292A" transform="translate(184,109)"/>
<path d="M0 0 C0.33 0.66 0.66 1.32 1 2 C-2.3 2.66 -5.6 3.32 -9 4 C-9 3.34 -9 2.68 -9 2 C-9.99 1.67 -10.98 1.34 -12 1 C-3.61572052 -1.37554585 -3.61572052 -1.37554585 0 0 Z " fill="#28272C" transform="translate(60,27)"/>
<path d="M0 0 C2.41003178 2.41003178 3.48200366 4.96400731 5 8 C6.95216435 9.95216435 8.53199953 10.84826645 11 12 C9.3125 12.75 9.3125 12.75 7 13 C3.1120587 10.5931792 1.21254361 8.40924949 0 4 C0 2.68 0 1.36 0 0 Z " fill="#301F20" transform="translate(80,119)"/>
<path d="M0 0 C5.94 0.99 5.94 0.99 12 2 C12 2.33 12 2.66 12 3 C10.06403108 3.22211116 8.12610672 3.42722992 6.1875 3.625 C4.56908203 3.79902344 4.56908203 3.79902344 2.91796875 3.9765625 C0 4 0 4 -3 2 C-2.01 2 -1.02 2 0 2 C0 1.34 0 0.68 0 0 Z " fill="#2C2B30" transform="translate(215,30)"/>
<path d="M0 0 C0.66 0 1.32 0 2 0 C3.3271261 3.9813783 3.06915913 7.85045227 3 12 C2.67 11.34 2.34 10.68 2 10 C1.34 10 0.68 10 0 10 C0 6.7 0 3.4 0 0 Z " fill="#252427" transform="translate(25,127)"/>
<path d="M0 0 C3.99547736 0.61468882 6.77506642 2.65459376 10 5 C10 5.33 10 5.66 10 6 C6.47730515 6.4025937 5.20059192 6.13372795 2.1875 4.125 C1.465625 3.42375 0.74375 2.7225 0 2 C0 1.34 0 0.68 0 0 Z " fill="#151417" transform="translate(89,230)"/>
<path d="M0 0 C0.33 0 0.66 0 1 0 C1 4.62 1 9.24 1 14 C-1.45526122 11.54473878 -1.41457598 10.39370182 -1.75 7 C-1.84796875 6.113125 -1.9459375 5.22625 -2.046875 4.3125 C-2 2 -2 2 0 0 Z " fill="#1B1A1D" transform="translate(22,101)"/>
<path d="M0 0 C4 5 4 5 4.25 7.8125 C4.1675 8.534375 4.085 9.25625 4 10 C3.67 10 3.34 10 3 10 C2.67 11.98 2.34 13.96 2 16 C1.67 16 1.34 16 1 16 C0.67 10.72 0.34 5.44 0 0 Z " fill="#2D2C30" transform="translate(232,37)"/>
<path d="M0 0 C2.97 0 5.94 0 9 0 C7 2 7 2 5 2.375 C2.79734983 2.82123176 2.79734983 2.82123176 1.75 5.0625 C1.5025 5.701875 1.255 6.34125 1 7 C0 6 0 6 -0.0625 2.9375 C-0.041875 1.968125 -0.02125 0.99875 0 0 Z " fill="#0F0E10" transform="translate(21,34)"/>
<path d="M0 0 C4.98862849 -0.29344873 7.96229058 -0.05887078 12 3 C12 3.33 12 3.66 12 4 C3.42857143 3.14285714 3.42857143 3.14285714 0 1 C0 0.67 0 0.34 0 0 Z " fill="#131216" transform="translate(175,21)"/>
<path d="M0 0 C3.73487777 0.4979837 5.81237635 0.87491756 9 3 C9 3.66 9 4.32 9 5 C5.65626525 4.44271087 2.96687001 3.64826111 0 2 C0 1.34 0 0.68 0 0 Z " fill="#151417" transform="translate(115,248)"/>
<path d="M0 0 C0.66 0 1.32 0 2 0 C1.25 5.75 1.25 5.75 -1 8 C-1.99 8 -2.98 8 -4 8 C-2.87548273 5.0280615 -1.77706209 2.66559313 0 0 Z " fill="#1B1A1B" transform="translate(209,180)"/>
<path d="M0 0 C0.66 0 1.32 0 2 0 C5 5.625 5 5.625 5 9 C2 8 2 8 0 5 C-0.125 2.3125 -0.125 2.3125 0 0 Z " fill="#171618" transform="translate(40,171)"/>
<path d="M0 0 C0.66 0.33 1.32 0.66 2 1 C1.34 3.97 0.68 6.94 0 10 C-0.66 9.34 -1.32 8.68 -2 8 C-1.42307692 1.42307692 -1.42307692 1.42307692 0 0 Z " fill="#18151B" transform="translate(226,143)"/>
<path d="M0 0 C0.66 0.66 1.32 1.32 2 2 C1.69903201 6.13830989 1.32101984 8.51847024 -1 12 C-1.02712066 10.56260487 -1.04645067 9.12506137 -1.0625 7.6875 C-1.07410156 6.88699219 -1.08570313 6.08648437 -1.09765625 5.26171875 C-1 3 -1 3 0 0 Z " fill="#29272D" transform="translate(223,149)"/>
<path d="M0 0 C4.455 1.98 4.455 1.98 9 4 C6 6 6 6 3.8125 5.625 C3.214375 5.41875 2.61625 5.2125 2 5 C2 4.01 2 3.02 2 2 C1.34 2 0.68 2 0 2 C0 1.34 0 0.68 0 0 Z " fill="#23212B" transform="translate(132,1)"/>
<path d="M0 0 C5.53846154 -0.36923077 5.53846154 -0.36923077 7.875 1.5 C8.24625 1.995 8.6175 2.49 9 3 C8.34 3 7.68 3 7 3 C6.67 3.66 6.34 4.32 6 5 C3.98079663 3.69593116 1.98075027 2.36176581 0 1 C0 0.67 0 0.34 0 0 Z " fill="#252328" transform="translate(95,236)"/>
<path d="M0 0 C0.33 0 0.66 0 1 0 C1.33 1.65 1.66 3.3 2 5 C2.33 5 2.66 5 3 5 C3 7.31 3 9.62 3 12 C2.67 11.34 2.34 10.68 2 10 C1.34 10 0.68 10 0 10 C0 6.7 0 3.4 0 0 Z " fill="#363538" transform="translate(233,96)"/>
<path d="M0 0 C0.99 0.33 1.98 0.66 3 1 C3 3.64 3 6.28 3 9 C2.01 8.34 1.02 7.68 0 7 C-0.1875 3.375 -0.1875 3.375 0 0 Z " fill="#2A292E" transform="translate(20,40)"/>
<path d="M0 0 C0.66 0 1.32 0 2 0 C1.42655063 2.86724686 1.1385485 3.8614515 -1 6 C-1.99 5.67 -2.98 5.34 -4 5 C-2.71937515 3.2925002 -1.38232443 1.62626404 0 0 Z " fill="#131214" transform="translate(179,217)"/>
<path d="M0 0 C0.66 0.33 1.32 0.66 2 1 C0.63016497 4.16115776 0.0109362 4.9927092 -3 7 C-3.33 6.01 -3.66 5.02 -4 4 C-2.68 2.68 -1.36 1.36 0 0 Z " fill="#1F1D25" transform="translate(184,212)"/>
<path d="M0 0 C1.32 0.66 2.64 1.32 4 2 C0.25 5 0.25 5 -2 5 C-2.33 4.01 -2.66 3.02 -3 2 C-2.01 1.34 -1.02 0.68 0 0 Z " fill="#242128" transform="translate(152,238)"/>
<path d="M0 0 C-0.66 1.32 -1.32 2.64 -2 4 C-3.32 4 -4.64 4 -6 4 C-5.67 3.01 -5.34 2.02 -5 1 C-3 0 -3 0 0 0 Z " fill="#151416" transform="translate(160,235)"/>
<path d="M0 0 C0.33 0.66 0.66 1.32 1 2 C-2.63 1.67 -6.26 1.34 -10 1 C-10 0.67 -10 0.34 -10 0 C-3.34250344 -1.36176066 -3.34250344 -1.36176066 0 0 Z " fill="#28262D" transform="translate(33,33)"/>
<path d="M0 0 C-2.17424117 2.50037734 -3.73045798 3.43628586 -7 4 C-7 3.01 -7 2.02 -7 1 C-4.53721199 -0.231394 -2.7204945 -0.07159196 0 0 Z " fill="#0E0D0E" transform="translate(126,2)"/>
</svg>
